<mxfile host="65bd71144e">
    <diagram id="PlvdKFPipfIJEg42LSOj" name="Page-1">
        <mxGraphModel dx="962" dy="608" grid="1" gridSize="10" guides="1" tooltips="1" connect="1" arrows="1" fold="1" page="1" pageScale="1" pageWidth="827" pageHeight="1169" math="0" shadow="0">
            <root>
                <mxCell id="0"/>
                <mxCell id="1" parent="0"/>
                <mxCell id="3" value="" style="whiteSpace=wrap;html=1;shadow=1;" vertex="1" parent="1">
                    <mxGeometry x="20" y="130" width="800" height="140" as="geometry"/>
                </mxCell>
                <mxCell id="4" value="Logo" style="whiteSpace=wrap;html=1;shadow=1;" vertex="1" parent="1">
                    <mxGeometry x="30" y="140" width="130" height="119" as="geometry"/>
                </mxCell>
                <mxCell id="5" value="Search Input" style="whiteSpace=wrap;html=1;shadow=1;" vertex="1" parent="1">
                    <mxGeometry x="249" y="140" width="130" height="50" as="geometry"/>
                </mxCell>
                <mxCell id="6" value="&lt;span style=&quot;color: rgba(0, 0, 0, 0); font-family: monospace; font-size: 0px; text-align: start;&quot;&gt;%3CmxGraphModel%3E%3Croot%3E%3CmxCell%20id%3D%220%22%2F%3E%3CmxCell%20id%3D%221%22%20parent%3D%220%22%2F%3E%3CmxCell%20id%3D%222%22%20value%3D%22Search%20Input%22%20style%3D%22whiteSpace%3Dwrap%3Bhtml%3D1%3Bshadow%3D1%3B%22%20vertex%3D%221%22%20parent%3D%221%22%3E%3CmxGeometry%20x%3D%22170%22%20y%3D%22140%22%20width%3D%22130%22%20height%3D%2250%22%20as%3D%22geometry%22%2F%3E%3C%2FmxCell%3E%3C%2Froot%3E%3C%2FmxGraphModel%3E&lt;/span&gt;&lt;span style=&quot;color: rgba(0, 0, 0, 0); font-family: monospace; font-size: 0px; text-align: start;&quot;&gt;%3CmxGraphModel%3E%3Croot%3E%3CmxCell%20id%3D%220%22%2F%3E%3CmxCell%20id%3D%221%22%20parent%3D%220%22%2F%3E%3CmxCell%20id%3D%222%22%20value%3D%22Search%20Input%22%20style%3D%22whiteSpace%3Dwrap%3Bhtml%3D1%3Bshadow%3D1%3B%22%20vertex%3D%221%22%20parent%3D%221%22%3E%3CmxGeometry%20x%3D%22170%22%20y%3D%22140%22%20width%3D%22130%22%20height%3D%2250%22%20as%3D%22geometry%22%2F%3E%3C%2FmxCell%3E%3C%2Froot%3E%3C%2FmxGraphModel%3E&lt;/span&gt;" style="whiteSpace=wrap;html=1;shadow=1;" vertex="1" parent="1">
                    <mxGeometry x="390" y="140" width="410" height="50" as="geometry"/>
                </mxCell>
                <mxCell id="7" value="tel icon" style="whiteSpace=wrap;html=1;shadow=1;" vertex="1" parent="1">
                    <mxGeometry x="400" y="150" width="80" height="30" as="geometry"/>
                </mxCell>
                <mxCell id="8" value="email icon" style="whiteSpace=wrap;html=1;shadow=1;" vertex="1" parent="1">
                    <mxGeometry x="493" y="150" width="90" height="30" as="geometry"/>
                </mxCell>
                <mxCell id="10" value="linkedin icon" style="whiteSpace=wrap;html=1;shadow=1;" vertex="1" parent="1">
                    <mxGeometry x="593" y="150" width="90" height="30" as="geometry"/>
                </mxCell>
                <mxCell id="11" value="facebook icon" style="whiteSpace=wrap;html=1;shadow=1;" vertex="1" parent="1">
                    <mxGeometry x="696" y="150" width="90" height="30" as="geometry"/>
                </mxCell>
                <mxCell id="12" value="Home page icon" style="whiteSpace=wrap;html=1;shadow=1;" vertex="1" parent="1">
                    <mxGeometry x="249" y="209" width="130" height="50" as="geometry"/>
                </mxCell>
                <mxCell id="13" value="Dropdown menu1" style="whiteSpace=wrap;html=1;shadow=1;" vertex="1" parent="1">
                    <mxGeometry x="389" y="208" width="130" height="50" as="geometry"/>
                </mxCell>
                <mxCell id="14" value="Dropdown menu2" style="whiteSpace=wrap;html=1;shadow=1;" vertex="1" parent="1">
                    <mxGeometry x="529" y="208" width="130" height="50" as="geometry"/>
                </mxCell>
                <mxCell id="15" value="Dropdown menu3" style="whiteSpace=wrap;html=1;shadow=1;" vertex="1" parent="1">
                    <mxGeometry x="669" y="207" width="130" height="50" as="geometry"/>
                </mxCell>
            </root>
        </mxGraphModel>
    </diagram>
</mxfile>